<svg id="Layer_1" data-name="Layer 1" xmlns="http://www.w3.org/2000/svg" viewBox="0 0 308.3 442.54">
  <title>op-logo-vertical-colour</title>
  <path d="M191.16,545.14c13.73,0,24.18,5.54,24.18,15.4,0,10.12-11.3,16.54-23.23,16.54a20.69,20.69,0,0,1-7.71-1.23c9.08-.44,18.9-5.1,18.9-13.55,0-7.74-6.54-10.82-15-10.82a51.33,51.33,0,0,0-7.39.52v39.69c0,4.93-.11,8.45,5.49,11.09V603h-21v-.26c5.38-1.59,4.75-8.1,4.75-12.06V557.55c0-4,.63-10.39-4.65-12.15v-.26Z" transform="translate(-164.35 -161.91)" style="fill: #0075bf"/>
  <path d="M234.27,581.31l-5.49,12.4c-2.22,4.93-3,7.48,2.11,9.07V603H211.46v-.26c6.13-2.55,7.92-7.48,10.25-12.5l17.63-36.69c1.48-3.17,3.48-6.87-1.58-8.19v-.26h16.68l22,45.14c2.43,5,4.33,10,10.35,12.5V603H265.1v-.26c5.18-1.94,4.33-2.91,1.48-9.07l-5.7-12.4Zm13.2-28.69L237,574.79h20.8Z" transform="translate(-164.35 -161.91)" style="fill: #0075bf"/>
  <path d="M318.33,545.14c14.14,0,21.85,6.16,21.85,14.17,0,7.74-8.13,13.81-16.79,15.48l15.21,15.93A71.84,71.84,0,0,0,355.71,603H346c-5.6,0-9.08-1.14-12.25-4.4l-12.88-13.28L311.15,573c8.44-1.06,18.26-4.31,18.26-12.59,0-6.33-6.54-10-13.62-9.76a64.6,64.6,0,0,0-7.18.7v39.42c0,4-.63,10.47,4.75,12.06V603H293.2v-.26c5.38-1.59,4.64-8.1,4.64-12.06V557.55c0-4,.74-10.47-4.64-12.15v-.26Z" transform="translate(-164.35 -161.91)" style="fill: #0075bf"/>
  <path d="M365.4,557.46c0-4,.64-10.38-4.75-12.06v-.26h20.28v.26c-5.39,1.59-4.76,8.1-4.76,12.06v33.17c0,4-.63,10.48,4.76,12.15V603H360.65v-.26c5.39-1.67,4.75-8.19,4.75-12.15Zm26,.18c3.48-4.14,9.82-9.6,2.74-12.24v-.26h19v.09l-24.28,26,21.32,23.32c3.28,3.6,7.29,6.07,12.68,8.27V603h-9.93c-5.17,0-10-1.67-11.93-3.78L377.55,573Z" transform="translate(-164.35 -161.91)" style="fill: #0075bf"/>
  <path d="M466.4,555.61c-4.12-3.52-10.66-5.54-16.58-5.54s-13.62,1.93-13.62,8c0,12,36.33,11.88,36.33,28.16,0,9.41-11.83,18.21-28.3,18.21a64.52,64.52,0,0,1-18.9-2.64l-3.07-11a41,41,0,0,0,23.13,7.3c6,0,15.1-3,15.1-9.15,0-13.72-36.33-11.26-36.33-29.92,0-11.08,13.63-15.31,26.51-15.31a62.93,62.93,0,0,1,15.73,1.94Z" transform="translate(-164.35 -161.91)" style="fill: #0075bf"/>
  <path d="M215.36,181.58c0,11.83-11.76,20.41-25.61,20.41s-25.4-8.23-25.4-20.12c0-11,11.48-20.24,26.09-20C205.06,161.86,215.36,171.14,215.36,181.58Zm-43.08-.23c0,8.12,6.89,16.47,17.82,16.47,10.57,0,17.33-6.44,17.33-15.08,0-8.47-6.48-16.65-17.47-16.65C179.17,166.09,172.28,172.59,172.28,181.35Z" transform="translate(-164.35 -161.91)" style="fill: #0075bf"/>
  <path d="M230.8,193.53c0,3.24-.07,5.56,3.62,7.36v.18H222.1v-.18c3.69-1.8,3.69-4.12,3.69-7.36V170.39c0-3.25,0-5.57-3.62-7.31v-.18h10.16V163a3.56,3.56,0,0,0,1,1.45l1,1.16,25.47,26.8v-22c0-3.25.07-5.57-3.62-7.31v-.18h12.25v.18c-3.62,1.74-3.62,4.06-3.62,7.31v32.53c-4.94-1.39-7.1-3.3-10.16-6.61L230.8,171.08Z" transform="translate(-164.35 -161.91)" style="fill: #0075bf"/>
  <path d="M293.62,193.53c0,3.3-.07,5.56,3.62,7.36v.18H283.46v-.18c3.48-1.1,3.06-5.33,3.06-7.94V167.08h-6.13c-3,0-6.12.64-8.28,2.32h-.21l2.44-6.9h.21a12.64,12.64,0,0,0,2.64.4h27.7a9.12,9.12,0,0,0,3.2-.4h.21l-2.23,6.9h-.2c-.91-2-3.69-2.32-6-2.32h-6.26Z" transform="translate(-164.35 -161.91)" style="fill: #0075bf"/>
  <path d="M320.3,186.74l-3.62,8.18c-1.46,3.25-1.95,4.93,1.39,6v.18h-12.8v-.18c4-1.68,5.22-4.93,6.75-8.23l11.62-24.19c1-2.09,2.3-4.52-1.05-5.39v-.18h11l14.48,29.76c1.6,3.3,2.85,6.55,6.82,8.23v.18H340.62v-.18c3.41-1.27,2.85-1.91,1-6l-3.75-8.18Zm8.7-18.91-6.89,14.62h13.71Z" transform="translate(-164.35 -161.91)" style="fill: #0075bf"/>
  <path d="M374.31,162.9c9.32,0,14.4,4.06,14.4,9.34,0,5.11-5.36,9.11-11.06,10.21l10,10.5a47.73,47.73,0,0,0,11.27,8.12h-6.4c-3.69,0-6-.76-8.07-2.9L376,189.41l-6.41-8.18c5.57-.69,12-2.84,12-8.29,0-4.18-4.31-6.61-9-6.44a44.71,44.71,0,0,0-4.74.46v26c0,2.66-.41,6.9,3.14,7.94v.18h-13.3v-.18c3.55-1,3.06-5.33,3.06-7.94V171.08c0-2.67.49-6.9-3.06-8v-.18Z" transform="translate(-164.35 -161.91)" style="fill: #0075bf"/>
  <path d="M403.41,171.08c0-2.67.49-6.9-3.06-8v-.18h13.22v.18c-3.48,1.1-3.06,5.39-3.06,8V193c0,2.61-.42,6.84,3.06,7.94v.18H400.35v-.18c3.48-1,3.06-5.33,3.06-7.94Z" transform="translate(-164.35 -161.91)" style="fill: #0075bf"/>
  <path d="M472.64,181.58c0,11.83-11.76,20.41-25.61,20.41s-25.4-8.23-25.4-20.12c0-11,11.48-20.24,26.1-20C462.34,161.86,472.64,171.14,472.64,181.58Zm-43.08-.23c0,8.12,6.89,16.47,17.82,16.47,10.58,0,17.33-6.44,17.33-15.08,0-8.47-6.47-16.65-17.47-16.65C436.45,166.09,429.56,172.59,429.56,181.35Z" transform="translate(-164.35 -161.91)" style="fill: #0075bf"/>
  <path d="M172.59,229.09c1.5,30.75,3,45,.75,75.75-2.25,27,.75,54-.75,80.25,1.94,27.1,1.94,47.68,1.5,55.5-1.5,26.25-.75,49.5-1.5,75.75,8.25.75,18.72,0,27,0,24,0,47.25,0,71.25,1.5,63.75,2.25,128.25,1.5,192-1.5-.75-16.5,2.25-31.5,1.5-48-.75-20.25-1.5-39.75,0-62.25.75-35.25-.25-57-1-89.25-.33-14.27-.14-35.14.25-44.25.75-17.25.75-31.5,0-45.75,0,0-9.75.75-18.75.75-13.83,0-27,0-40.5.75-24.75,1.5-32.25-3-57-.75-5.25,0-33-.75-37.5-.75-15.75-.75-39.75,2.25-55.5.75-21-2.25-18,1.5-39-.75l-17.25.75A161.63,161.63,0,0,0,172.59,229.09Z" transform="translate(-164.35 -161.91)" style="fill: #fff;stroke: #0075bf;stroke-width: 9px"/>
  <path d="M189.83,380.21c17,1.92,18.71-1,24.34,1.3,2,.8,12-1.67,17.33-.67,2.07.39,16-.67,16-.67,9.67-1.33,8,0,20.67-.66,10.66,3.33,10.66.66,20.66,1.33.67,0,14.3-2.36,25.34,0a41.23,41.23,0,0,0,16-.33c7.32-1.7,13.68,2.19,20-.34,3.33-1.33,13.9,1.1,15.33.67,6.67-2,14-1.33,22.67,0,1.33,0,24.66-2,26-1.33,14.66.66,3.33,1.33,18,.66l14.79,0c0-.25,0-.5.07-.76.22-2.19.5-6-.55-8.21,0-1.1-1-5.7-.93-6.8,1.18-3.28,2.25-2.59,1.22-5.91-.51-2.22.64-5.4.14-7.61-1.05-2.23-2.5-7.76-.46-10,1.13-1.21-.22-6.67-.63-9.8s1.74-8.31.27-16.43c-1.35-7.42,2.13-6.1,1.48-9.09-2.3-10.42-.1-16.59-1.48-24.88-.27-1.59.19-5.06.76-9.39,1-7.3-1.15-7-1-15.23,0-1.1.38-5.19.41-6.29s.29-3.41.45-6.18c-3.72,3.31-6.17,3.17-6,3.09-3.77,1.72-4.66-3.15-8.81,2.25-1.5,2.25-6-1.87-7.13,1.5-.91,2.74-5.25-2.62-9,1.88a35.63,35.63,0,0,1-4.5,4.87c-1.39.8-2.48,4-3.37,2.63-4.13-6.38-5.53-4.76-8.25-7.13-.46,0-3.65,4.46-4.13,5.25-2.3,0-7.78-4.65-10.13-2.26-1,1.59-.08,2.17-1.49,3.76-.48.8-4.58,1-4.61,2.62-.06,3.17-.13,7.14-2,8.74-2.33,1.6-5.51-.77-7.39,1.62-4.23,4.78-8.38,4.8-12.5,4-1.85,0-2.67-7.55-4.49-8.34-2.28-1.58-4.61,0-6.89-.76-.91-.79-1.77-4-2.68-4.76-1.83-.78-4.16.81-6,0-1.82-1.58-2.38-4.79-5.47-3.16-6.12,3.24-5.09,6.05-8.37,9.24A9.55,9.55,0,0,1,316,272.2c0,.79-2,3.59-2.49,3.59-4.59-.78-5.47,3.59-8.75,6.78-1.88,2.39-4.13-.78-6-.77-3.19-1.58-4.68.27-7.4-2.1a36.81,36.81,0,0,1-2.55-7.39c-.86-3.17-3.17-3.16-5-3.16l.09-4.76c-3.25,1.6-3.66-1.58-4-6.34-.93.8-1.37-.79-2.29-.78,0-.8-1.73-1.8-1.71-2.6-.46,0-1,2.56-1.5,2.56-.06,3.17-1.95,1.55-3.38,3.94-1.41,1.6-2.06,4.08-3,4.88-3.74,3.19-4.25,2.78-7.87-.38-.46,0-4.91,1.59-4.88,0-2.76,0-1.47-.93-3.37,2.25-.48.8-2.44,6.7-3.38,7.5-4.23,4.78-5.79-1.42-10.39-1.4-.91-.79-2.5,2.89-3.11,1.4-2.74-6.66-3-.21-5.25-3.37-.89-1.59-5.1-3.5-5.25.75-.11,3.15-3-1.23-2.89-5.2,0-.79-3.4-1.55-3.86-1.55-1.84,0,.36-3.05-1.5-2.25a7.25,7.25,0,0,0-2.25-4.5c-1.36-.79-3.51-.34-4.87-1.13-.45-.79-5.18-2.71-5.63-3.5-.87-.25-1.19-.09-1.3.07a11.36,11.36,0,0,0-1-3.14c-1.31-4-3.56.52-6.28-1.85-1.1-.64-2.86-3.28-4-4.7.21,4,.39,7.3.59,8.82,0,1.1-.61,5.19-.59,6.29.18,8.26-2.77,7.43,0,15.23,1.47,4.11-.6,14.29-.57,15.39.26,12.11-2,8.38-.15,18.88.82,4.56-.17,13.92-.52,17.6-.53,5.54.94,8.79-.15,14.25,0,1.65,3.07,2.35,2.28,3.81-1.45,2.7.1,4.4-.95,6.63-.51,2.21.64,4.39.14,6.61a15.3,15.3,0,0,0,.21,9.91c0,1.1-.95,5.7-.92,6.8A11.44,11.44,0,0,0,189.83,380.21Z" transform="translate(-164.35 -161.91)" style="fill: #00ab67;fill-rule: evenodd"/>
  <g>
    <path d="M439.24,500.75h-.59" transform="translate(-164.35 -161.91)" style="fill: none;stroke: #ed1c24;stroke-linecap: round;stroke-linejoin: round;stroke-width: 0.1px;fill-rule: evenodd"/>
    <path d="M438.65,500.76a23.8,23.8,0,0,0-4.73.34" transform="translate(-164.35 -161.91)" style="fill: none;stroke: #ed1c24;stroke-linecap: round;stroke-linejoin: round;stroke-width: 0.1px;fill-rule: evenodd"/>
    <path d="M439.24,500.75a3.88,3.88,0,0,0-.59,0" transform="translate(-164.35 -161.91)" style="fill: none;stroke: #ed1c24;stroke-linecap: round;stroke-linejoin: round;stroke-width: 0.1px;fill-rule: evenodd"/>
    <path d="M439.24,500.75c1.46-.08,4.9-.61,5.9-.58.68.09,1.74.17,3.06.26a24.3,24.3,0,0,0-.87-3.36c2.39-6.45-.63-8.29.18-14.27a43.11,43.11,0,0,0,.06-4.68c-3-.25-5.11,0-8.95-.36-.65-.74-8.64-2-9.3-2.38-5.33-.16-7.29-2.72-12.26-4-.33,0-5-1.59-5.29-1.6-1-.75-4-1.56-4.95-1.95-2.68.28-1.94-2.23-4.61-2.31-1.31-.76-4-.84-5.29-1.6-2,.3-5.91-3.45-7.91-3.51-4.59-2.66-2.27-2.21-7.22-4.16-1-.39-4.62-2-5.25-3.05a8.66,8.66,0,0,0-3-.45,27.94,27.94,0,0,0-4.27-2.66,49.72,49.72,0,0,0-6.95-2l-.64-.74-2.33-.07c-.32-.73-1-.39-1.32-.76a4.8,4.8,0,0,1-3.62-1.55c-1,.33-1.23-.79-2.24-.46-.33-.37-1.41-.38-1.73-.75a17.71,17.71,0,0,1-4.33-.49c0-.36-4.31-.82-4.65-.83-6-.18-5-.54-11-.36-3.36.62-5,.33-8.36.23-.34.35-6.25.7-6.6,1.06-3,1-2,.54-4.87,1-.69.71-3.1.52-3.45,1.23-.34,0-2,.37-2.34.36-.69.7-1.86.64-2.87,1,0,.36-1.59.5-2.18.89a6.94,6.94,0,0,1-1.92-.07c-1.06-.47-1.6-1.87-.07-3.19a27.8,27.8,0,0,1,2.61-1.55l.67,0c.34-.35,1-.33,1.36-1,1.66-.05,2-1.75,3.37-1.34,0-.73,2.16-.32,1.85-1.06,1.68-.31,2.88-1.33,4.54-1.28a9.29,9.29,0,0,1,5.39-1.29c.68-.7,3.68-.61,4-1.32,1.34,0,2.51-.28,3.84-.24,2-1.39,2.19-.66,4.2-1,.34-.36,1.68-.32,2-.67.33,0,2.26-.56,2.57.17.35-.35,2.18-.21,2.85-.55.66.38,3.26-.08,3.94-.42l11.66.35c.31.73,7.33.22,7.65.59,4.33.13,5.64,1.26,10,1.39l.65.74.66,0c0,.72,3-.63,2.67.08,1,0,3.33.1,4,.84a43.06,43.06,0,0,1,6.63,1.28c1.63.77,3.28,1.9,5.63,1.61a23.21,23.21,0,0,0,4.62,1.59c2,.06,2,1.5,4,1.56a10,10,0,0,0,3,1.17c.66,0,2,1.12,2.65,1.14.32.37,4,.48,4,1.2,3.67-.25,1.63,1.19,5.63.94.66.39,3,.79,3.64,1.53.66,0,2.33.41,3,.43-.34.35,1.65.75,1.31,1.1,2.31.79,2.66-.24,4.62,1.27,2.34.07,4.66,1.21,7,1.28.33,0,6.64.57,7,.94,4.3.13,2.7-.28,6.93-.15a38.74,38.74,0,0,0-.86-5.08c-.91-3.68,1.17-4,.15-7.91-.34-2.85.52-7,.93-10.72-.82-.3-1.59.06-2.44-.52C444.25,429,443.34,428,442,428c-2.62-1.9-2.53-2.62-6.35-3.47-2.33.31-5-3-7.31-3-1.66-1.52-3.87-2-6.36-2.92-4-2.19-7.27-1.85-9.93-2.87-3.34-.68-7.5-.71-9.83-1.07-2.66-1-5.34-.11-7.16-.06-4-1-8.85,1.4-9.85.59-1.84,1.56-6.67,1.26-8.05,2.23-1.55-.26-4.3,1.29-5.13.84a1.35,1.35,0,0,1-1.36-2,5,5,0,0,1,3.39-1.85c-.33-.67,3.09-1.14,3.09-1.81,2.34,0,2.26-1.23,4.6-1.21.67-1,2-1,3-1,.34-.33,1,0,1.34-.66l1.67,0c.33-.33.67-.67,1-.66,5-1.31,5.68-1.71,8.68-1.35a6,6,0,0,1,4.84-.8c2.86-.09,5.29-.68,8-.6,5.15.37,3.33,0,7,.72,4.15.19,7,.21,7.65.88.34,0,4.67,1.5,5.75,1.13a28.33,28.33,0,0,1,6.32,1.8c2.92-.35,3.24,1.36,7.24,1.56.5.75,2.29.76,3.31.86,0-.67.09-1.39.18-2.15.6-2.19-1.36-7.24.15-11.16.18-2.27-.49-5.91-.87-10.23v-.06l-14.85,0c-14.67.66-3.34,0-18-.67-1.34-.67-24.67,1.33-26,1.33-8.67-1.33-16-2-22.67,0-1.43.43-12-2-15.33-.66-6.32,2.52-12.68-1.37-20,.33a41,41,0,0,1-16,.33c-11-2.36-24.67,0-25.34,0-10-.66-10,2-20.66-1.33-12.67.67-11-.67-20.67.67,0,0-13.93,1.05-16,.66-5.33-1-15.38,1.47-17.33.67-5.64-2.32-7.33.64-24.43-1.31v.07c.16,6.21,1,11.36,1.27,14.28-2.15,2.25-1.44,9-.84,11.15.68,6.05-1.39,12.15-.16,18.19a27.25,27.25,0,0,1,.8,11.55c-1,3.88,2.07,6.23.49,9.57-1.07,1.68-2,6.37-.82,8.55.6,2.19.54,6.92.58,8.57-.44,5-3.37,11,0,14.77a34.22,34.22,0,0,0-1.16,14.3c7.18.94,14.78,2.47,22.58-.11,3.78,3.39,9.8.46,14.77,0,1.65,0,6.38,0,8.57.58,2.18,1.15,6.87.24,8.55-.82,3.34-1.58,5.69,1.5,9.57.48a27.41,27.41,0,0,1,11.55.81c6,1.23,12.14-.84,18.19-.16,2.19.6,8.9,1.31,11.15-.84,3.9.3,11.24,1.78,20.69,1.13,2.2-.15,6,.5,8.21-.55,1.1,0,5.7-.28,6.8-.26a21.69,21.69,0,0,0,8.66.82c-1.38-.84-3.3-1.39-4.43-2-2-.38-2.29-1.51-4.31-2.27-1-.75-2.69-.63-3.35-1.76-.68,0-1.92-1.55-3.59-1.43-1.35-.39-2.79-1.85-4.13-1.86a15.45,15.45,0,0,0-5.82-3.31c.32-1-3.35-2.52-4.7-3.27-3.37-.39-3.23-.2-5.92-2.46-1.35,0-7.86-3-9.21-2.61-4.53-1.77-2.09-2.05-6.81-2.07,0-.75-3.84-.77-3.5-1.52-.67,0-5.84-.19-6.18-.94a27.77,27.77,0,0,0-6.73-.91c-.34-.38-3.56-.39-5.56-.44-1.56-.67-3.66-.4-7.19-.25-4.93.74-9.35,1.06-9.85,1.34-3.71-.39-4.66,1.6-8.37,1.21-3.37,1.49-3.58.86-7,1.72-2.2,1.32-1.77.79-4.37,1.15-1.41.19-2,1.2-4,1.19-.33.7-2.41.44-3.66.61-1.16-.76-1.63-1.84-1.29-1.84a2.36,2.36,0,0,1,1.52-2c1.89-.62.35-1.65,4.13-2.14a8.09,8.09,0,0,0,2.59-1c1-.5,1.46-1,2.46-1.45.67-.16,2-.12,2.63-.28.67-.66,1.42-.66,1.92-1.49a3.06,3.06,0,0,0,1.88-.31,4.37,4.37,0,0,1,2.79-.7c.34-.37,2.85-.86,3.19-1.23,2.92.55,3.12-1.74,9.09-2.33,1-.75,6.23-.48,8.42-1.72,7.22.29,7.06-1.18,11-.66,3.73.89,6.19-.68,8.88.08.67.76,6.14-.05,7.16-.05.33,0,9.54,1.08,9.21,1,4.21.1,3.78.93,8,1.29,1,1.13,6.2.6,6.87,2.1,1.68,0,5,1.35,6.72,1.36.67.38,3.93.52,4.26.89,2.36.39,3,1.48,5.33,1.49,2,.91,2.56,1.22,4,1.86,1.69,0,2.62,1,4.31,1l4.52,1.69c2.87.51,2,.47,3.86,1.69,1,0,3.26,1.8,4.27,1.43.67,0,4.66,2.15,5.33,2.15,2.2.3,3.59,1.27,6,2.4,2.7.39,3.68,1,6.38,1.74,3.37,0,4.38,1.89,7.75,2.66,2.44,1.5,5.9,1.91,6.62,2.45,3.71,0,7.54,1.66,11.25,1.67,6.39,2.28,6.25,2.78,13,3.19.68-.75,10.18,2,10.86,1.29,2.36,0,8.54,2,10.9,2.05,4.47-1.5,4.77.1,7.7.84" transform="translate(-164.35 -161.91)" style="fill: #0075bf;fill-rule: evenodd"/>
  </g>
</svg>
